<svg xmlns="http://www.w3.org/2000/svg" width="1200" height="630" viewBox="0 0 1200 630">
  <defs>
    <linearGradient id="g" x1="0%" y1="0%" x2="100%" y2="100%">
      <stop offset="0%" stop-color="#6366f1"/>
      <stop offset="50%" stop-color="#8b5cf6"/>
      <stop offset="100%" stop-color="#a855f7"/>
    </linearGradient>
    <linearGradient id="bg" x1="0%" y1="0%" x2="0%" y2="100%">
      <stop offset="0%" stop-color="#0a0a0f"/>
      <stop offset="100%" stop-color="#12121a"/>
    </linearGradient>
    <radialGradient id="glow" cx="50%" cy="0%" r="50%">
      <stop offset="0%" stop-color="rgba(99,102,241,0.15)"/>
      <stop offset="100%" stop-color="rgba(99,102,241,0)"/>
    </radialGradient>
  </defs>
  <rect width="1200" height="630" fill="url(#bg)"/>
  <rect width="1200" height="300" fill="url(#glow)"/>
  
  <!-- Grid -->
  <g opacity="0.03">
    <line x1="0" y1="60" x2="1200" y2="60" stroke="#6366f1" stroke-width="1"/>
    <line x1="0" y1="120" x2="1200" y2="120" stroke="#6366f1" stroke-width="1"/>
    <line x1="0" y1="180" x2="1200" y2="180" stroke="#6366f1" stroke-width="1"/>
    <line x1="0" y1="240" x2="1200" y2="240" stroke="#6366f1" stroke-width="1"/>
    <line x1="0" y1="300" x2="1200" y2="300" stroke="#6366f1" stroke-width="1"/>
    <line x1="0" y1="360" x2="1200" y2="360" stroke="#6366f1" stroke-width="1"/>
    <line x1="0" y1="420" x2="1200" y2="420" stroke="#6366f1" stroke-width="1"/>
    <line x1="0" y1="480" x2="1200" y2="480" stroke="#6366f1" stroke-width="1"/>
    <line x1="0" y1="540" x2="1200" y2="540" stroke="#6366f1" stroke-width="1"/>
    <line x1="60" y1="0" x2="60" y2="630" stroke="#6366f1" stroke-width="1"/>
    <line x1="120" y1="0" x2="120" y2="630" stroke="#6366f1" stroke-width="1"/>
    <line x1="180" y1="0" x2="180" y2="630" stroke="#6366f1" stroke-width="1"/>
    <line x1="240" y1="0" x2="240" y2="630" stroke="#6366f1" stroke-width="1"/>
    <line x1="300" y1="0" x2="300" y2="630" stroke="#6366f1" stroke-width="1"/>
    <line x1="360" y1="0" x2="360" y2="630" stroke="#6366f1" stroke-width="1"/>
    <line x1="420" y1="0" x2="420" y2="630" stroke="#6366f1" stroke-width="1"/>
    <line x1="480" y1="0" x2="480" y2="630" stroke="#6366f1" stroke-width="1"/>
    <line x1="540" y1="0" x2="540" y2="630" stroke="#6366f1" stroke-width="1"/>
    <line x1="600" y1="0" x2="600" y2="630" stroke="#6366f1" stroke-width="1"/>
    <line x1="660" y1="0" x2="660" y2="630" stroke="#6366f1" stroke-width="1"/>
    <line x1="720" y1="0" x2="720" y2="630" stroke="#6366f1" stroke-width="1"/>
    <line x1="780" y1="0" x2="780" y2="630" stroke="#6366f1" stroke-width="1"/>
    <line x1="840" y1="0" x2="840" y2="630" stroke="#6366f1" stroke-width="1"/>
    <line x1="900" y1="0" x2="900" y2="630" stroke="#6366f1" stroke-width="1"/>
    <line x1="960" y1="0" x2="960" y2="630" stroke="#6366f1" stroke-width="1"/>
    <line x1="1020" y1="0" x2="1020" y2="630" stroke="#6366f1" stroke-width="1"/>
    <line x1="1080" y1="0" x2="1080" y2="630" stroke="#6366f1" stroke-width="1"/>
    <line x1="1140" y1="0" x2="1140" y2="630" stroke="#6366f1" stroke-width="1"/>
  </g>
  
  <!-- Name -->
  <text x="80" y="250" font-family="Inter,sans-serif" font-size="80" font-weight="800" fill="url(#g)">Abhigyan</text>
  
  <!-- Title -->
  <text x="80" y="310" font-family="Inter,sans-serif" font-size="36" font-weight="600" fill="#94a3b8">Senior Software Engineer</text>
  
  <!-- Tagline -->
  <text x="80" y="380" font-family="Inter,sans-serif" font-size="28" font-weight="400" fill="#64748b">Backend systems by day, AI experiments by night.</text>
  <text x="80" y="425" font-family="Inter,sans-serif" font-size="28" font-weight="400" fill="#64748b">I build things to understand them.</text>
  
  <!-- Tags -->
  <rect x="80" y="465" width="240" height="44" rx="22" fill="#12121a" stroke="#1e293b" stroke-width="1"/>
  <text x="200" y="493" font-family="Inter,sans-serif" font-size="18" fill="#818cf8" text-anchor="middle">Distributed Systems</text>
  
  <rect x="340" y="465" width="170" height="44" rx="22" fill="#12121a" stroke="#1e293b" stroke-width="1"/>
  <text x="425" y="493" font-family="Inter,sans-serif" font-size="18" fill="#818cf8" text-anchor="middle">AI / LLM</text>
  
  <rect x="530" y="465" width="220" height="44" rx="22" fill="#12121a" stroke="#1e293b" stroke-width="1"/>
  <text x="640" y="493" font-family="Inter,sans-serif" font-size="18" fill="#818cf8" text-anchor="middle">Multi-Agent</text>
  
  <!-- GitHub -->
  <text x="80" y="575" font-family="monospace" font-size="20" fill="#484f58">github.com/abster12</text>
</svg>
